<?xml version="1.0" encoding="utf-8"?>
<!-- Generator: Adobe Illustrator 23.0.2, SVG Export Plug-In . SVG Version: 6.00 Build 0)  -->
<svg version="1.1" id="Слой_1" xmlns="http://www.w3.org/2000/svg" xmlns:xlink="http://www.w3.org/1999/xlink" x="0px" y="0px"
	 viewBox="0 0 64 64" style="enable-background:new 0 0 64 64;" xml:space="preserve">
<style type="text/css">
	.st0{fill:none;stroke:#000000;stroke-width:2;stroke-linecap:round;stroke-linejoin:round;stroke-miterlimit:10;}
</style>
<path class="st0" d="M32.18,7.96c1.84,5.62,3.68,11.25,5.51,16.87c7.44-0.05,14.88-0.09,22.32-0.14
	c-6.19,4.09-12.38,8.18-18.57,12.27c1.87,6.32,3.75,12.65,5.62,18.97c-5-3.75-10-7.5-15-11.25c-5.11,3.79-10.22,7.57-15.33,11.36
	c1.99-6.36,3.97-12.72,5.96-19.08c-6.23-4.09-12.47-8.18-18.7-12.27c7.59,0.05,15.19,0.09,22.78,0.14
	C28.57,19.21,30.38,13.58,32.18,7.96z"/>
</svg>
